<?xml version="1.0" encoding="utf-8"?>
<!-- Generator: Adobe Illustrator 18.1.1, SVG Export Plug-In . SVG Version: 6.00 Build 0)  -->
<svg version="1.1" id="레이어_1" xmlns="http://www.w3.org/2000/svg" xmlns:xlink="http://www.w3.org/1999/xlink" x="0px"
	 y="0px" viewBox="0 0 255 400" enable-background="new 0 0 255 400" xml:space="preserve">
<g>
	<path d="M132.7,134.9c-12.3,0-22.2,9.9-22.2,22.2c0,12.3,9.9,22.2,22.2,22.2s22.2-9.9,22.2-22.2S145,134.9,132.7,134.9z
		 M136.5,153.3c-3.3,0-5.7-2.4-5.7-5.7c0-3.3,2.4-5.7,5.7-5.7c3.3,0,5.7,2.4,5.7,5.7C142.2,150.5,139.8,153.3,136.5,153.3z"/>
	<path d="M224.4,161.8c0-44.9-32.6-82.2-75.1-90.3V39c0-0.5,2.8-0.9,3.8-2.4c2.4-2.8,2.4-7.1-0.5-9.5c-2.8-2.4-7.1-2.4-9.5,0.5
		c-2.4,2.8-3.3,7.1-0.5,9.5c0.9,0.9,2.4,1.4,2.4,1.4v31.7c-3.8-0.5-7.6-0.9-11.8-0.9c-3.3,0-6.6,0-9.5,0.5c-0.9,0-1.4,0.5-2.4,0.5
		V38c0-0.5,2.4-0.9,3.3-2.4c2.4-2.8,1.9-7.1-0.9-9.5c-2.8-2.4-7.6-2.4-9.9,0.5s-2.8,7.1,0,9.5c0.9,0.9,2.8,1.4,2.8,1.4v32.6
		c-42.5,8-75.1,45.4-75.1,90.3c0,37.8,23.2,70.4,55.8,84.6l-13.2,31.2l0,0c-0.9,0.5-1.9,1.4-2.4,2.8c-3.3,4.3-1.4,5.2-0.5,5.2
		c0.5,3.8,1.4,9.5,3.8,8.5c0,0,2.4-0.9,0.9-4.7c0.9-0.5,1.9-0.9,1.9-0.9c4.7-0.9,3.8-8.5,3.8-9.5v-0.9l0,0v0.9l11.8-27.4
		c-1.9,14.2-5.2,28.4-8,42.1c-2.8,9,1.9,23.2,11.3,33.1v6.6c0,14.7,1.4,26.5,1.4,26.5l0,0c-12.8,0-25,10.4-25,23.2v1.9
		c4.7,1.9,11.3,3.3,23.6,3.3s23.6-1.4,23.6-3.3v-1.9V375c-4.7-5.7-9.5-22.2-9.5-36.9v-3.3c4.7,0.9,8.5,1.4,11.8,1.9
		c3.3,0,7.1-0.5,11.8-1.9v3.3c0,14.7-4.7,31.2-9.5,36.9v6.6v1.9c0,1.9,11.3,3.3,23.6,3.3c12.3,0,23.6-1.4,23.6-3.3v-1.9
		c0-12.8-12.3-23.2-24.6-23.2l0,0c0,0,1.4-11.8,1.4-26.5v-6.6c9.5-9.9,14.2-24.1,11.8-31.2c-3.3-14.7-6.1-29.8-8-44.9l12.8,29.8v0.5
		c0,0.9-0.9,8.5,3.8,9c0,0,0.9,0.9,1.4,1.4c-1.4,3.8,0.9,4.7,0.9,4.7c2.4,0.9,3.8-4.7,3.8-8.5c0.9-0.5,2.8-1.4-0.5-5.2
		c-0.5-1.9-1.4-2.4-2.4-2.8l0,0l-13.2-31.2C201.8,231.8,224.4,199.6,224.4,161.8z M175.3,278.1L175.3,278.1L175.3,278.1L175.3,278.1
		z M132.7,211.5c-30.2,0-54.8-24.6-54.8-54.8s24.6-54.8,54.8-54.8s54.8,24.6,54.8,54.8C187.6,187.4,163,211.5,132.7,211.5z"/>
</g>
</svg>
